<svg width="30" height="30" viewBox="0 0 30 30" fill="none" xmlns="http://www.w3.org/2000/svg">
<path d="M6.00545 8.02077V7.60656L5.71256 7.31366L2.36636 3.96747L2.71991 3.61392L6.06611 6.96011L6.359 7.25301H6.77321H25.8254C25.9635 7.25301 26.0754 7.36492 26.0754 7.50301C26.0754 7.52739 26.0718 7.55181 26.0647 7.57546L23.0649 17.5748C23.0649 17.5749 23.0649 17.5749 23.0649 17.5749C23.0332 17.6805 22.9358 17.753 22.8254 17.753H7.50545H6.50545V18.753V21.253V22.253H7.50545H20.2555V22.753H6.25545C6.11737 22.753 6.00545 22.6411 6.00545 22.503V8.02077ZM6.88045 27.753C6.39721 27.753 6.00545 27.3612 6.00545 26.878C6.00545 26.3948 6.39721 26.003 6.88045 26.003C7.36369 26.003 7.75545 26.3948 7.75545 26.878C7.75545 27.3612 7.36369 27.753 6.88045 27.753ZM21.8805 27.753C21.3972 27.753 21.0055 27.3613 21.0055 26.878C21.0055 26.3947 21.3972 26.003 21.8805 26.003C22.3637 26.003 22.7555 26.3948 22.7555 26.878C22.7555 27.3612 22.3637 27.753 21.8805 27.753Z" fill="white" stroke="white" stroke-width="2"/>
</svg>
