<svg width="30" height="30" viewBox="0 0 30 30" fill="none" xmlns="http://www.w3.org/2000/svg">
<path d="M14.2929 6.95711L15 7.66421L15.7071 6.95711C16.8373 5.82693 18.6477 4.75 20.625 4.75C23.8092 4.75 26.5 7.36474 26.5 11.25C26.5 15.2382 24.3686 18.4307 21.7359 20.913C19.401 23.1145 16.771 24.6668 15.0891 25.6594C15.0591 25.6772 15.0294 25.6947 15 25.7121C14.9706 25.6947 14.9409 25.6772 14.9109 25.6594C13.229 24.6668 10.599 23.1145 8.26414 20.913C5.63137 18.4307 3.5 15.2382 3.5 11.25C3.5 7.36931 6.23353 4.75 9.375 4.75C11.3523 4.75 13.1627 5.82693 14.2929 6.95711Z" fill="white" stroke="white" stroke-width="2"/>
</svg>
