<svg width="283" height="65" viewBox="0 0 283 65" fill="none" xmlns="http://www.w3.org/2000/svg">
<mask id="mask0_512_2494" style="mask-type:alpha" maskUnits="userSpaceOnUse" x="1" y="8" width="281" height="39">
<path d="M21.45 14.4V45H16.55V14.4H1V10H37.05V14.4H21.45ZM49.1871 34.4L43.9871 45H38.5371L55.7871 10H64.0871L81.3371 45H75.8371L70.6371 34.4H49.1871ZM51.3871 30H68.4371L59.9371 12.7L51.3871 30ZM90.2359 39.25V45H85.3359V10H90.2359V33.4L118.436 10H125.686L111.136 22L126.036 45H120.186L107.336 25.15L90.2359 39.25ZM164.439 40.6V45H131.039V10H162.789V14.4H135.939V23.85H157.739V28.25H135.939V40.6H164.439ZM167.955 27.15C168.055 23.9833 168.605 21.25 169.605 18.95C170.638 16.65 172.038 14.7667 173.805 13.3C175.605 11.8 177.722 10.7 180.155 10C182.622 9.26666 185.355 8.9 188.355 8.9C191.355 8.9 194.072 9.28333 196.505 10.05C198.972 10.7833 201.088 11.9 202.855 13.4C204.655 14.9 206.055 16.8 207.055 19.1C208.088 21.3667 208.655 24.05 208.755 27.15V28.05C208.655 31.15 208.088 33.85 207.055 36.15C206.055 38.4167 204.655 40.2833 202.855 41.75C201.088 43.2167 198.972 44.3 196.505 45C194.072 45.7333 191.355 46.1 188.355 46.1C185.355 46.1 182.622 45.7333 180.155 45C177.722 44.3 175.605 43.2167 173.805 41.75C172.038 40.25 170.638 38.3667 169.605 36.1C168.605 33.8333 168.055 31.15 167.955 28.05V27.15ZM188.355 13.3C186.055 13.3 183.955 13.6 182.055 14.2C180.188 14.8 178.588 15.7 177.255 16.9C175.955 18.0667 174.938 19.55 174.205 21.35C173.505 23.1167 173.155 25.2 173.155 27.6C173.155 29.9 173.505 31.9333 174.205 33.7C174.938 35.4333 175.955 36.9 177.255 38.1C178.588 39.2667 180.188 40.1667 182.055 40.8C183.955 41.4 186.055 41.7 188.355 41.7C190.655 41.7 192.738 41.4 194.605 40.8C196.505 40.2 198.105 39.3167 199.405 38.15C200.738 36.95 201.755 35.4833 202.455 33.75C203.188 31.9833 203.555 29.9333 203.555 27.6C203.555 25.3 203.188 23.2667 202.455 21.5C201.755 19.7333 200.738 18.25 199.405 17.05C198.105 15.8167 196.505 14.8833 194.605 14.25C192.738 13.6167 190.655 13.3 188.355 13.3ZM218.654 29.75V45H213.754V10H245.304V14.4H218.654V25.35H240.254V29.75H218.654ZM254.689 29.75V45H249.789V10H281.339V14.4H254.689V25.35H276.289V29.75H254.689Z" fill="white"/>
</mask>
<g mask="url(#mask0_512_2494)">
<rect y="29" width="281" height="30" fill="#212121"/>
<rect width="281" height="30" fill="white"/>
</g>
</svg>
